<svg xmlns="http://www.w3.org/2000/svg" width="240" height="240" viewBox="0 0 240 240">
  <defs>
    <linearGradient id="leafA" x1="0" y1="0" x2="1" y2="1">
      <stop offset="0" stop-color="#9cc38b" />
      <stop offset="1" stop-color="#4f6d44" />
    </linearGradient>
    <linearGradient id="leafB" x1="0" y1="1" x2="1" y2="0">
      <stop offset="0" stop-color="#b2d2a5" />
      <stop offset="1" stop-color="#5c7a50" />
    </linearGradient>
    <filter id="shadow" x="-20%" y="-20%" width="140%" height="140%">
      <feDropShadow dx="0" dy="6" stdDeviation="6" flood-color="#000000" flood-opacity="0.28" />
    </filter>
  </defs>
  <g filter="url(#shadow)">
    <path d="M220 24c-44 12-86 40-115 77-26 33-42 72-46 119 37-24 69-56 92-95 20-34 36-70 69-101z" fill="url(#leafA)" />
    <path d="M198 28c-36 16-64 42-86 73-20 27-34 58-40 96 31-21 57-47 76-78 16-27 30-57 50-91z" fill="url(#leafB)" />
  </g>
</svg>
